<svg xmlns="http://www.w3.org/2000/svg" xmlns:xlink="http://www.w3.org/1999/xlink" version="1.1" id="Layer_1" x="0px" y="0px" viewBox="0 0 425 355" style="enable-background:new 0 0 425 355;" xml:space="preserve">
    <style type="text/css">
        .st0{fill:#F5F5F5;}
        .st1{fill:#E0E0E0;}
        .st2{fill:#FFFFFF;}
        .st3{fill:#EBEBEB;}
        .st4{fill:#FAFAFA;}
        .st5{fill:#263238;}
        .st6{fill:#455A64;}
        .st7{fill:#DC2735;}
        .st8{opacity:0.4;}
        .st9{opacity:0.3;}
        .st10{fill:#FFBE9D;}
        .st11{fill:#EB996E;}
        .st12{opacity:0.2;}
        .st13{fill:none;}
    </style>
    <g>
        <g id="Layer_2_00000121256626431266445330000008059188162815470523_">
            <g id="Lamp">
                <polygon class="st0" points="130.8,203.2 26.1,203.2 33.8,128.6 139.4,128.6    "/>
                <path class="st1" d="M37.6,190.7c-0.1,0,1-11.2,2.4-25.1s2.7-25.1,2.7-25c0.1,0-1,11.2-2.4,25.1S37.7,190.7,37.6,190.7z"/>
                <path class="st1" d="M56.6,143.1c-1.7,0.2-3.5,0.2-5.3,0.2c-1.8,0.1-3.5,0-5.3-0.2c1.7-0.2,3.5-0.2,5.3-0.2     C53.1,142.9,54.9,143,56.6,143.1z"/>
                <path class="st1" d="M101.3,143.1c0,0.1-9.4,0.2-20.9,0.2s-20.9-0.1-20.9-0.2s9.4-0.2,20.9-0.2S101.3,143,101.3,143.1z"/>
                <path class="st1" d="M55.4,169.6c-1.7,0.2-3.5,0.2-5.3,0.2c-1.8,0.1-3.5,0-5.3-0.2c1.7-0.2,3.5-0.2,5.3-0.2     C51.9,169.4,53.6,169.5,55.4,169.6z"/>
                <path class="st1" d="M100.1,169.6c0,0.1-9.4,0.2-20.9,0.2s-20.9-0.1-20.9-0.2c0-0.1,9.4-0.2,20.9-0.2S100.1,169.5,100.1,169.6z"/>
                <path class="st1" d="M85.8,181.8c0,0.1-9.4,0.2-20.9,0.2S44,181.9,44,181.8c0-0.1,9.4-0.2,20.9-0.2S85.8,181.8,85.8,181.8z"/>
                <path class="st1" d="M61.3,150.6c0,0.1-3.3,0.2-7.4,0.2s-7.4-0.1-7.4-0.2s3.3-0.2,7.4-0.2S61.3,150.5,61.3,150.6z"/>
                <path class="st1" d="M60.9,161.6c0,0.1-3.3,0.2-7.4,0.2s-7.4-0.1-7.4-0.2c0-0.1,3.3-0.2,7.4-0.2     C57.6,161.4,60.9,161.5,60.9,161.6z"/>
                <path class="st1" d="M73.4,177.3c0,0.1-3.3,0.2-7.4,0.2s-7.4-0.1-7.4-0.2c0-0.1,3.3-0.2,7.4-0.2S73.4,177.2,73.4,177.3z"/>
                <path class="st1" d="M115.1,150.6c0,0.1-8.5,0.2-18.9,0.2s-18.9-0.1-18.9-0.2s8.5-0.2,18.9-0.2S115.1,150.5,115.1,150.6z"/>
                <path class="st1" d="M103.4,162.2c0,0.1-8.5,0.2-18.9,0.2s-18.9-0.1-18.9-0.2c0-0.1,8.5-0.2,18.9-0.2S103.4,162.1,103.4,162.2z"/>
                <path class="st1" d="M116.4,177.3c0,0.1-8.5,0.2-18.9,0.2s-18.9-0.1-18.9-0.2c0-0.1,8.5-0.2,18.9-0.2S116.4,177.2,116.4,177.3z"/>
                <path class="st1" d="M81.9,190.7c0,0.1-8.5,0.2-18.9,0.2s-18.9-0.1-18.9-0.2s8.5-0.2,18.9-0.2S81.9,190.6,81.9,190.7z"/>
                <path class="st1" d="M123.7,190.7c0,0.1-8.5,0.2-18.9,0.2s-18.9-0.1-18.9-0.2s8.5-0.2,18.9-0.2S123.7,190.6,123.7,190.7z"/>
                <path class="st1" d="M81.9,195.1c0,0.1-8.5,0.2-18.9,0.2s-18.9-0.1-18.9-0.2c0-0.1,8.5-0.2,18.9-0.2S81.9,195,81.9,195.1z"/>
                <path class="st1" d="M83.7,153.8c0,0.1-8.5,0.2-18.9,0.2S46,153.8,46,153.8s8.5-0.2,18.9-0.2S83.7,153.6,83.7,153.8z"/>
                <path class="st1" d="M73.7,150.6c-1.6,0.2-3.2,0.2-4.9,0.2c-1.6,0.1-3.2,0-4.9-0.2c1.6-0.2,3.2-0.2,4.9-0.2     C70.4,150.4,72,150.5,73.7,150.6z"/>
                <path class="st1" d="M54.2,173.2c-1.6,0.2-3.2,0.2-4.9,0.2c-1.6,0.1-3.2,0-4.9-0.2c1.6-0.2,3.2-0.2,4.9-0.2     C50.9,173,52.5,173.1,54.2,173.2z"/>
                <path class="st1" d="M53.9,177.3c-1.6,0.2-3.2,0.2-4.9,0.2c-1.6,0.1-3.2,0-4.9-0.2c1.6-0.2,3.2-0.2,4.9-0.2     C50.7,177,52.3,177.1,53.9,177.3z"/>
                <path class="st1" d="M138.2,136.5c0,0.1-23.5,0.2-52.6,0.2s-52.6-0.1-52.6-0.2s23.5-0.2,52.6-0.2S138.2,136.4,138.2,136.5z"/>
                <circle class="st2" cx="40.2" cy="133" r="1.2"/>
                <circle class="st2" cx="45.5" cy="133" r="1.2"/>
                <circle class="st2" cx="50.9" cy="133" r="1.2"/>
                <g>
                    <polygon class="st0" points="398.4,165.9 249.2,165.9 260.2,59.6 410.7,59.6     "/>
                    <path class="st1" d="M265.6,148.1c-0.1,0,1.4-16,3.4-35.7c2-19.7,3.8-35.7,3.9-35.7s-1.4,16-3.4,35.7      C267.5,132.1,265.7,148.1,265.6,148.1z"/>
                    <path class="st1" d="M292.8,80.3c-2.5,0.2-5,0.3-7.5,0.2c-2.5,0.1-5,0-7.5-0.2C282.8,80,287.8,80,292.8,80.3z"/>
                    <path class="st1" d="M356.5,80.3c0,0.1-13.4,0.2-29.8,0.2s-29.8-0.1-29.8-0.2c0-0.1,13.4-0.2,29.8-0.2S356.5,80.1,356.5,80.3z"/>
                    <path class="st1" d="M291,118.1c-5,0.3-10,0.3-15,0C281,117.7,286,117.7,291,118.1z"/>
                    <path class="st1" d="M354.8,118.1c0,0.1-13.4,0.2-29.8,0.2c-16.5,0-29.8-0.1-29.8-0.2c0-0.1,13.4-0.2,29.8-0.2      C341.4,117.8,354.8,117.9,354.8,118.1z"/>
                    <path class="st1" d="M334.4,135.5c0,0.1-13.4,0.2-29.8,0.2s-29.8-0.1-29.8-0.2s13.4-0.2,29.8-0.2      C321.1,135.2,334.4,135.3,334.4,135.5z"/>
                    <path class="st1" d="M299.4,90.9c0,0.1-4.7,0.2-10.5,0.2s-10.5-0.1-10.5-0.2s4.7-0.2,10.5-0.2S299.4,90.8,299.4,90.9z"/>
                    <path class="st1" d="M298.8,106.6c0,0.1-4.7,0.2-10.5,0.2s-10.5-0.1-10.5-0.2c0-0.1,4.7-0.2,10.5-0.2S298.8,106.4,298.8,106.6z"/>
                    <path class="st1" d="M316.7,128.9c0,0.1-4.7,0.2-10.5,0.2s-10.5-0.1-10.5-0.2c0-0.1,4.7-0.2,10.5-0.2S316.7,128.8,316.7,128.9z"/>
                    <path class="st1" d="M376.1,90.9c0,0.1-12.1,0.2-26.9,0.2s-26.9-0.1-26.9-0.2s12.1-0.2,26.9-0.2S376.1,90.8,376.1,90.9z"/>
                    <path class="st1" d="M359.4,107.5c0,0.1-12.1,0.2-26.9,0.2s-26.9-0.1-26.9-0.2c0-0.1,12.1-0.3,26.9-0.3      C347.4,107.2,359.4,107.4,359.4,107.5z"/>
                    <path class="st1" d="M378,128.9c0,0.1-12.1,0.2-26.9,0.2s-26.9-0.1-26.9-0.2c0-0.1,12.1-0.2,26.9-0.2S378,128.8,378,128.9z"/>
                    <path class="st1" d="M328.8,148.1c0,0.1-12.1,0.2-26.9,0.2c-14.9,0-26.9-0.1-26.9-0.2s12.1-0.2,26.9-0.2      S328.8,147.9,328.8,148.1z"/>
                    <path class="st1" d="M388.3,148.1c0,0.1-12.1,0.2-26.9,0.2c-14.9,0-26.9-0.1-26.9-0.2s12.1-0.2,26.9-0.2      C376.3,147.8,388.3,147.9,388.3,148.1z"/>
                    <path class="st1" d="M328.8,154.3c0,0.1-12.1,0.2-26.9,0.2c-14.9,0-26.9-0.1-26.9-0.2s12.1-0.2,26.9-0.2      S328.8,154.2,328.8,154.3z"/>
                    <path class="st1" d="M331.4,95.4c0,0.1-12.1,0.2-26.9,0.2c-14.9,0-26.9-0.1-26.9-0.2c0-0.1,12.1-0.2,26.9-0.2      S331.4,95.3,331.4,95.4z"/>
                    <path class="st1" d="M317.1,91c-4.6,0.3-9.3,0.3-13.9,0C307.8,90.7,312.4,90.7,317.1,91z"/>
                    <path class="st1" d="M289.2,123.2c-4.6,0.3-9.3,0.3-13.9,0C280,122.9,284.6,122.9,289.2,123.2z"/>
                    <path class="st1" d="M288.9,128.9c-4.6,0.3-9.3,0.3-13.9,0C279.7,128.6,284.3,128.6,288.9,128.9z"/>
                    <path class="st1" d="M409.1,70.9c0,0.1-33.6,0.2-74.9,0.2s-75-0.1-75-0.2c0-0.1,33.5-0.3,75-0.3S409.1,70.7,409.1,70.9z"/>
                    <circle class="st2" cx="269.3" cy="65.8" r="1.8"/>
                    <circle class="st2" cx="276.9" cy="65.8" r="1.8"/>
                    <circle class="st2" cx="284.5" cy="65.8" r="1.8"/>
                </g>
                <g>
                    <polygon class="st3" points="163.4,113.7 43.6,113.7 52.5,28.4 173.3,28.4     "/>
                    <path class="st1" d="M56.8,99.4c-0.2,0,1-12.8,2.6-28.7s3.1-28.6,3.3-28.6c0.2,0-1,12.9-2.7,28.7S57,99.4,56.8,99.4z"/>
                    <path class="st1" d="M78.6,45c-2,0.3-4,0.4-6,0.3c-2,0.1-4,0-6-0.3c2-0.3,4-0.4,6-0.3C74.6,44.6,76.6,44.7,78.6,45z"/>
                    <path class="st1" d="M129.8,45c0,0.2-10.7,0.3-23.9,0.3S81.9,45.2,81.9,45c0-0.2,10.7-0.3,23.9-0.3S129.8,44.8,129.8,45z"/>
                    <path class="st1" d="M77.2,75.3c-2,0.3-4,0.4-6,0.3c-2,0.1-4,0-6-0.3c2-0.3,4-0.4,6-0.3C73.2,74.9,75.2,75,77.2,75.3z"/>
                    <path class="st1" d="M128.3,75.3c0,0.2-10.7,0.3-23.9,0.3s-23.9-0.1-23.9-0.3c0-0.2,10.7-0.3,23.9-0.3S128.3,75.2,128.3,75.3z"/>
                    <path class="st1" d="M112,89.3c0,0.2-10.7,0.3-23.9,0.3s-23.9-0.1-23.9-0.3c0-0.2,10.7-0.3,23.9-0.3S112,89.1,112,89.3z"/>
                    <path class="st1" d="M83.9,53.6c-2.8,0.3-5.6,0.4-8.5,0.3c-2.8,0.1-5.7,0-8.5-0.3c2.8-0.3,5.6-0.4,8.5-0.3      C78.3,53.2,81.1,53.3,83.9,53.6z"/>
                    <path class="st1" d="M83.5,66.1c-2.8,0.3-5.6,0.4-8.4,0.3c-2.8,0.1-5.7,0-8.5-0.3c2.8-0.3,5.6-0.4,8.5-0.3      C77.8,65.7,80.7,65.8,83.5,66.1z"/>
                    <path class="st1" d="M97.8,84.1c-2.8,0.3-5.6,0.4-8.5,0.3c-2.8,0.1-5.7,0-8.5-0.3c2.8-0.3,5.6-0.4,8.5-0.3      C92.1,83.6,95,83.7,97.8,84.1z"/>
                    <path class="st1" d="M145.4,53.6c0,0.2-9.7,0.3-21.6,0.3s-21.6-0.1-21.6-0.3s9.7-0.3,21.6-0.3S145.4,53.4,145.4,53.6z"/>
                    <path class="st1" d="M132.1,66.9c0,0.2-9.7,0.3-21.6,0.3S88.9,67,88.9,66.9c0-0.2,9.7-0.3,21.6-0.3S132.1,66.7,132.1,66.9z"/>
                    <path class="st1" d="M147,84.1c0,0.2-9.7,0.3-21.6,0.3s-21.6-0.1-21.6-0.3s9.7-0.3,21.6-0.3S147,83.9,147,84.1z"/>
                    <path class="st1" d="M107.5,99.4c0,0.2-9.7,0.3-21.6,0.3s-21.6-0.1-21.6-0.3s9.7-0.3,21.6-0.3S107.5,99.2,107.5,99.4z"/>
                    <path class="st1" d="M155.3,99.4c0,0.2-9.7,0.3-21.6,0.3s-21.6-0.1-21.6-0.3s9.7-0.3,21.6-0.3S155.3,99.2,155.3,99.4z"/>
                    <path class="st1" d="M107.5,104.4c0,0.2-9.7,0.3-21.6,0.3s-21.6-0.1-21.6-0.3c0-0.2,9.7-0.3,21.6-0.3S107.5,104.3,107.5,104.4z"/>
                    <path class="st1" d="M109.6,57.2c0,0.2-9.7,0.3-21.6,0.3s-21.6-0.1-21.6-0.3s9.7-0.3,21.6-0.3S109.6,57,109.6,57.2z"/>
                    <path class="st1" d="M98.1,53.6c-1.8,0.3-3.7,0.4-5.6,0.3c-1.9,0.1-3.7,0-5.6-0.3c1.8-0.3,3.7-0.4,5.6-0.3      C94.4,53.2,96.3,53.3,98.1,53.6z"/>
                    <path class="st1" d="M75.8,79.5c-1.8,0.3-3.7,0.4-5.6,0.3c-1.9,0.1-3.7,0-5.6-0.3c1.8-0.3,3.7-0.4,5.6-0.3      C72.1,79,73.9,79.1,75.8,79.5z"/>
                    <path class="st1" d="M75.5,84.1c-1.8,0.3-3.7,0.4-5.6,0.3c-1.9,0.1-3.7,0-5.6-0.3c1.8-0.3,3.7-0.4,5.6-0.3      C71.8,83.6,73.7,83.7,75.5,84.1z"/>
                    <path class="st1" d="M171.9,37.5c0,0.2-26.9,0.3-60.2,0.3s-60.2-0.1-60.2-0.3s26.9-0.3,60.2-0.3S171.9,37.3,171.9,37.5z"/>
                    <path class="st2" d="M61.2,33.4c0,0.8-0.6,1.4-1.4,1.4s-1.4-0.6-1.4-1.4c0-0.8,0.6-1.4,1.4-1.4C60.5,32,61.2,32.6,61.2,33.4      C61.2,33.4,61.2,33.4,61.2,33.4z"/>
                    <path class="st2" d="M67.3,33.4c0,0.8-0.6,1.4-1.4,1.4c-0.8,0-1.4-0.6-1.4-1.4c0-0.8,0.6-1.4,1.4-1.4c0,0,0,0,0,0      C66.7,32,67.3,32.6,67.3,33.4z"/>
                    <path class="st2" d="M73.4,33.4c0,0.8-0.6,1.4-1.4,1.4c-0.8,0-1.4-0.6-1.4-1.4c0-0.8,0.6-1.4,1.4-1.4c0,0,0,0,0,0      C72.8,32,73.4,32.6,73.4,33.4z"/>
                </g>
                <rect x="327.4" y="198.3" class="st3" width="32.8" height="106.3"/>
                <rect x="360.2" y="198.3" class="st1" width="27.9" height="106.2"/>
                <rect x="330" y="202.6" class="st1" width="26.3" height="22.9"/>
                <rect x="330" y="228.1" class="st1" width="26.3" height="22.9"/>
                <rect x="330" y="253.6" class="st1" width="26.3" height="22.9"/>
                <rect x="330" y="279.1" class="st1" width="26.3" height="22.9"/>
                <path class="st4" d="M343.1,206.8c0,0.5-0.4,0.9-0.9,0.9s-0.9-0.4-0.9-0.9c0-0.5,0.4-0.9,0.9-0.9S343.1,206.3,343.1,206.8     L343.1,206.8z"/>
                <path class="st4" d="M343.1,232.6c0,0.5-0.4,0.9-0.9,0.9s-0.9-0.4-0.9-0.9c0-0.5,0.4-0.9,0.9-0.9S343.1,232.1,343.1,232.6     L343.1,232.6z"/>
                <path class="st4" d="M343.1,258.4c0,0.5-0.4,0.9-0.9,0.9s-0.9-0.4-0.9-0.9c0-0.5,0.4-0.9,0.9-0.9     C342.7,257.5,343.1,257.9,343.1,258.4C343.1,258.4,343.1,258.4,343.1,258.4z"/>
                <path class="st4" d="M343.1,284.2c0,0.5-0.4,0.9-0.9,0.9s-0.9-0.4-0.9-0.9c0-0.5,0.4-0.9,0.9-0.9S343.1,283.7,343.1,284.2     L343.1,284.2z"/>
                <rect x="327.4" y="304.6" class="st1" width="3.8" height="21.3"/>
                <rect x="356.3" y="304.6" class="st1" width="3.8" height="21.3"/>
                <rect x="383.9" y="304.6" class="st1" width="3.8" height="21.3"/>
                <path class="st0" d="M51.5,319.9c-1-0.8-3.1-3.5-1.5-6.5c0.6-1.1,1.9-1.7,3.1-2.2c1.2-0.4,2.4-1,3.4-1.7c1.8-1.6,2.4-4.2,3.6-6.2     c1.4-2.4,4-4.2,6.8-4c3.2,0.1,5.8,2.7,7,5.7c1.2,2.9,1.3,6.2,1.3,9.4c0,1.8-0.1,3.7-1.4,4.9c-1.2,1.1-3,1.1-4.6,1.1l-17.3-0.5"/>
                <path class="st1" d="M84.7,272.5H39.1l8.2,48.7c0.4,2.1,1.9,3.8,3.9,4.3l0.2,0c0.1,0,0.3,0.1,0.4,0.1c0.3,0.1,0.6,0.1,0.9,0.1v0     l0.2,0h20.3c0.4,0,0.7,0,1.1-0.1c2.4-0.4,4.3-2.3,4.6-4.8l3.9-33.5l0.2-1.3l0,0l1.6-13.3L84.7,272.5z M76.1,303.5h-4.7l0.5-14.1     h5.4L76.1,303.5z M77.7,289.4h4.5l-1.7,14.1h-4L77.7,289.4z M64.4,319.2l-0.3-12.3h6.7l-0.4,12.3L64.4,319.2z M57.1,306.9h6.5     l0.3,12.3h-5.8L57.1,306.9z M57.6,319.2h-5.5c-0.5-3.3-1.2-7.6-1.9-12.3h6.4L57.6,319.2z M56.8,303.5l-1.1-14.1h7.5l0.3,14.1     H56.8z M64,303.5l-0.3-14.1h7.7l-0.5,14.1H64z M63.6,286l-0.3-13.1H72L71.5,286H63.6z M63.2,286h-7.7l-1-13.1h8.4L63.2,286z      M55,286h-8.1c-0.3-1.8-0.6-3.5-0.8-5.1c-0.8-5.3-1.2-7.3-1.3-8H54L55,286z M55.3,289.4l1.1,14.1h-6.7c-0.2-1.4-0.5-2.9-0.7-4.3     c-0.5-3.3-1.1-6.7-1.5-9.8H55.3z M49.2,303.5h-4.4l-2.4-14.1H47C47.7,293.8,48.4,298.6,49.2,303.5L49.2,303.5z M49.8,306.9     c0.6,4.2,1.3,8.4,1.9,12.3h-4.2l-2.1-12.3H49.8z M70.9,319.2l0.4-12.3h4.5l-1.1,12.3H70.9z M72,286l0.4-13.1h6.3L77.6,286H72z      M44.3,272.9c0.2,1,1,6.1,2.1,13.1h-4.6l-2.2-13.1H44.3z M78.7,319.2h-3.5l1.1-12.3h3.9L78.7,319.2z M82.6,286H78l1.1-13.1h5     L82.6,286z"/>
                <path class="st5" d="M384.9,325.9c0,0.1-83.1,0.2-185.6,0.2S13.6,326,13.6,325.9s83.1-0.2,185.7-0.2S384.9,325.8,384.9,325.9z"/>
                <polygon class="st5" points="221.1,186.9 149.9,186.9 155.2,136.2 227,136.2    "/>
                <polygon class="st6" points="217.5,186.9 146.3,186.9 151.5,136.2 223.4,136.2    "/>
                <polygon class="st0" points="214.9,184.6 148.8,184.6 153.7,137.5 220.3,137.5    "/>
                <path class="st5" d="M155.9,176.8c-0.1,0,0.6-7.1,1.5-15.8s1.7-15.8,1.8-15.8c0.1,0-0.6,7.1-1.5,15.8S156,176.8,155.9,176.8z"/>
                <path class="st5" d="M168,146.7c-1.1,0.2-2.2,0.2-3.3,0.2c-1.1,0.1-2.2,0-3.3-0.2c1.1-0.2,2.2-0.2,3.3-0.2     C165.8,146.5,166.9,146.6,168,146.7z"/>
                <path class="st7" d="M196.2,146.7c0,0.1-5.9,0.2-13.2,0.2s-13.2-0.1-13.2-0.2s5.9-0.2,13.2-0.2     C190.3,146.6,196.2,146.7,196.2,146.7z"/>
                <path class="st5" d="M167.2,163.5c-1.1,0.2-2.2,0.2-3.3,0.2c-1.1,0.1-2.2,0-3.3-0.2c1.1-0.2,2.2-0.2,3.3-0.2     C165,163.3,166.1,163.3,167.2,163.5z"/>
                <path class="st7" d="M195.4,163.5c0,0.1-5.9,0.2-13.2,0.2c-7.3,0-13.2-0.1-13.2-0.2c0-0.1,5.9-0.2,13.2-0.2     S195.4,163.4,195.4,163.5z"/>
                <path class="st7" d="M186.4,171.2c0,0.1-5.9,0.2-13.2,0.2s-13.2-0.1-13.2-0.2c0-0.1,5.9-0.2,13.2-0.2     C180.5,171,186.4,171.1,186.4,171.2z"/>
                <path class="st7" d="M170.9,151.5c-1.6,0.2-3.1,0.2-4.7,0.2c-1.6,0.1-3.1,0-4.7-0.2c1.6-0.2,3.1-0.2,4.7-0.2     C167.8,151.2,169.4,151.3,170.9,151.5z"/>
                <path class="st7" d="M170.7,158.4c-1.6,0.2-3.1,0.2-4.7,0.2c-1.6,0.1-3.1,0-4.7-0.2c1.6-0.2,3.1-0.2,4.7-0.2     C167.6,158.2,169.1,158.2,170.7,158.4z"/>
                <path class="st7" d="M178.6,168.3c-1.5,0.2-3.1,0.2-4.7,0.2c-1.6,0.1-3.1,0-4.7-0.2c1.6-0.2,3.1-0.2,4.7-0.2     C175.4,168.1,177,168.1,178.6,168.3z"/>
                <path class="st5" d="M204.9,151.5c0,0.1-5.3,0.2-11.9,0.2c-6.6,0-11.9-0.1-11.9-0.2c0-0.1,5.3-0.2,11.9-0.2     C199.5,151.3,204.9,151.4,204.9,151.5z"/>
                <path class="st5" d="M197.5,158.8c0,0.1-5.3,0.2-11.9,0.2s-11.9-0.1-11.9-0.2c0-0.1,5.3-0.2,11.9-0.2     C192.2,158.6,197.5,158.7,197.5,158.8z"/>
                <path class="st5" d="M205.7,168.3c0,0.1-5.3,0.2-11.9,0.2c-6.6,0-11.9-0.1-11.9-0.2s5.3-0.2,11.9-0.2S205.7,168.2,205.7,168.3z"/>
                <path class="st5" d="M183.9,176.8c0,0.1-5.3,0.2-11.9,0.2s-11.9-0.1-11.9-0.2s5.3-0.2,11.9-0.2S183.9,176.7,183.9,176.8z"/>
                <path class="st5" d="M210.3,176.8c0,0.1-5.3,0.2-11.9,0.2s-11.9-0.1-11.9-0.2s5.3-0.2,11.9-0.2S210.3,176.7,210.3,176.8z"/>
                <path class="st5" d="M183.9,179.5c0,0.1-5.3,0.2-11.9,0.2s-11.9-0.1-11.9-0.2c0-0.1,5.3-0.2,11.9-0.2S183.9,179.5,183.9,179.5z"/>
                <path class="st5" d="M185.1,153.5c0,0.1-5.3,0.2-11.9,0.2s-11.9-0.1-11.9-0.2s5.3-0.2,11.9-0.2S185.1,153.4,185.1,153.5z"/>
                <path class="st6" d="M178.7,151.5c-2,0.2-4.1,0.2-6.1,0C174.6,151.3,176.7,151.3,178.7,151.5z"/>
                <path class="st6" d="M166.4,165.8c-1,0.2-2,0.2-3.1,0.2c-1,0.1-2.1,0-3.1-0.2c1-0.2,2-0.2,3.1-0.2     C164.4,165.5,165.4,165.6,166.4,165.8z"/>
                <path class="st6" d="M166.3,168.3c-1,0.2-2,0.2-3.1,0.2c-1,0.1-2.1,0-3.1-0.2c1-0.2,2-0.2,3.1-0.2     C164.2,168.1,165.3,168.1,166.3,168.3z"/>
                <path class="st5" d="M219.5,142.6c0,0.1-14.9,0.2-33.2,0.2s-33.2-0.1-33.2-0.2s14.9-0.2,33.2-0.2S219.5,142.5,219.5,142.6z"/>
                <path class="st2" d="M158.4,140.3c0,0.4-0.4,0.8-0.8,0.8c-0.4,0-0.8-0.4-0.8-0.8c0-0.4,0.4-0.8,0.8-0.8l0,0     C158,139.5,158.4,139.9,158.4,140.3C158.4,140.3,158.4,140.3,158.4,140.3z"/>
                <path class="st2" d="M161.7,140.3c0,0.4-0.4,0.8-0.8,0.8s-0.8-0.4-0.8-0.8s0.4-0.8,0.8-0.8l0,0     C161.4,139.5,161.7,139.9,161.7,140.3C161.7,140.3,161.7,140.3,161.7,140.3z"/>
                <path class="st2" d="M165.1,140.3c0,0.4-0.4,0.8-0.8,0.8c-0.4,0-0.8-0.4-0.8-0.8s0.4-0.8,0.8-0.8c0,0,0,0,0,0     C164.8,139.5,165.1,139.9,165.1,140.3C165.1,140.3,165.1,140.3,165.1,140.3z"/>
                <polygon class="st5" points="314.7,188.5 239.8,188.5 245.3,135.1 320.9,135.1    "/>
                <polygon class="st6" points="310.9,188.5 236,188.5 241.5,135.1 317.1,135.1    "/>
                <polygon class="st3" points="308.1,186.1 238.6,186.1 243.7,136.5 313.9,136.5    "/>
                <path class="st5" d="M246.2,177.1c-0.1,0,0.6-7.5,1.5-16.6c1-9.2,1.8-16.6,1.9-16.6c0.1,0-0.6,7.5-1.5,16.6     S246.3,177.1,246.2,177.1z"/>
                <path class="st5" d="M258.8,145.5c-2.3,0.2-4.7,0.2-7,0C254.2,145.2,256.5,145.2,258.8,145.5z"/>
                <path class="st7" d="M288.5,145.5c0,0.1-6.2,0.2-13.9,0.2s-13.9-0.1-13.9-0.2s6.2-0.2,13.9-0.2     C282.3,145.3,288.5,145.4,288.5,145.5z"/>
                <path class="st5" d="M258,163.1c-2.3,0.2-4.7,0.2-7,0C253.4,162.8,255.7,162.8,258,163.1z"/>
                <path class="st7" d="M287.7,163.1c0,0.1-6.2,0.2-13.9,0.2s-13.9-0.1-13.9-0.2s6.2-0.2,13.9-0.2S287.7,163,287.7,163.1z"/>
                <path class="st7" d="M278.3,171.2c0,0.1-6.2,0.2-13.9,0.2s-13.9-0.1-13.9-0.2c0-0.1,6.2-0.2,13.9-0.2     C272,171,278.3,171.1,278.3,171.2z"/>
                <path class="st7" d="M261.9,150.4c-1.6,0.2-3.3,0.2-4.9,0.2c-1.6,0.1-3.3,0-4.9-0.2C255.4,150.2,258.7,150.2,261.9,150.4z"/>
                <path class="st7" d="M261.7,157.7c-1.6,0.2-3.3,0.2-4.9,0.2c-1.6,0.1-3.3,0-4.9-0.2C255.1,157.5,258.4,157.5,261.7,157.7z"/>
                <path class="st7" d="M270,168.1c-3.3,0.2-6.6,0.2-9.8,0C263.4,167.9,266.7,167.9,270,168.1z"/>
                <path class="st5" d="M297.7,150.4c0,0.1-5.6,0.2-12.5,0.2s-12.5-0.1-12.5-0.2c0-0.1,5.6-0.2,12.5-0.2S297.7,150.3,297.7,150.4z"/>
                <path class="st5" d="M289.9,158.1c0,0.1-5.6,0.2-12.5,0.2s-12.6-0.1-12.6-0.2c0-0.1,5.6-0.2,12.6-0.2S289.9,158,289.9,158.1z"/>
                <path class="st5" d="M298.5,168.1c0,0.1-5.6,0.2-12.5,0.2s-12.5-0.1-12.5-0.2s5.6-0.2,12.5-0.2S298.5,168,298.5,168.1z"/>
                <path class="st5" d="M275.6,177.1c0,0.1-5.6,0.2-12.5,0.2s-12.5-0.1-12.5-0.2s5.6-0.2,12.5-0.2S275.6,177,275.6,177.1z"/>
                <path class="st5" d="M303.4,177.1c0,0.1-5.6,0.2-12.5,0.2c-6.9,0-12.5-0.1-12.5-0.2s5.6-0.2,12.5-0.2     C297.8,176.9,303.4,177,303.4,177.1z"/>
                <path class="st5" d="M275.6,180c0,0.1-5.6,0.2-12.5,0.2s-12.5-0.1-12.5-0.2s5.6-0.2,12.5-0.2S275.6,179.9,275.6,180z"/>
                <path class="st5" d="M276.8,152.5c0,0.1-5.6,0.2-12.5,0.2s-12.5-0.1-12.5-0.2s5.6-0.2,12.5-0.2S276.8,152.4,276.8,152.5z"/>
                <path class="st6" d="M270.2,150.4c-2.1,0.2-4.3,0.2-6.5,0C265.8,150.2,268,150.2,270.2,150.4z"/>
                <path class="st6" d="M257.2,165.4c-2.1,0.2-4.3,0.2-6.5,0C252.9,165.2,255.1,165.2,257.2,165.4z"/>
                <path class="st6" d="M257,168.1c-2.1,0.2-4.3,0.2-6.5,0C252.7,167.9,254.9,167.9,257,168.1z"/>
                <path class="st5" d="M313,141.1c0,0.1-15.6,0.2-34.9,0.2c-19.3,0-34.9-0.1-34.9-0.2s15.6-0.2,34.9-0.2     C297.4,140.9,313,141,313,141.1z"/>
                <path class="st2" d="M248.7,138.7c0,0.5-0.4,0.8-0.8,0.8s-0.8-0.4-0.8-0.8c0-0.5,0.4-0.8,0.8-0.8     C248.4,137.9,248.7,138.2,248.7,138.7C248.7,138.7,248.7,138.7,248.7,138.7z"/>
                <path class="st2" d="M252.3,138.7c0,0.5-0.4,0.8-0.8,0.8c-0.5,0-0.8-0.4-0.8-0.8c0-0.5,0.4-0.8,0.8-0.8     C251.9,137.9,252.3,138.2,252.3,138.7C252.3,138.7,252.3,138.7,252.3,138.7z"/>
                <path class="st2" d="M255.8,138.7c0,0.5-0.4,0.8-0.8,0.8c-0.5,0-0.8-0.4-0.8-0.8c0-0.5,0.4-0.8,0.8-0.8c0,0,0,0,0,0     C255.5,137.9,255.8,138.2,255.8,138.7C255.8,138.7,255.8,138.7,255.8,138.7z"/>
                <polygon class="st5" points="281,123.9 186.9,123.9 193.9,56.9 288.7,56.9    "/>
                <polygon class="st6" points="276.2,123.9 182.1,123.9 189.1,56.9 283.9,56.9    "/>
                <polygon class="st4" points="272.7,120.9 185.4,120.9 191.9,58.7 279.9,58.7    "/>
                <path class="st5" d="M195,110.4c-0.1,0,0.8-9.4,1.9-20.9c1.2-11.5,2.3-20.9,2.4-20.8c0.1,0-0.7,9.4-1.9,20.9     S195.1,110.4,195,110.4z"/>
                <path class="st5" d="M210.9,70.8c-1.4,0.2-2.9,0.3-4.4,0.2c-1.5,0.1-2.9,0-4.4-0.2C205.1,70.5,208,70.5,210.9,70.8z"/>
                <path class="st7" d="M248.2,70.8c0,0.1-7.8,0.2-17.5,0.2c-9.6,0-17.5-0.1-17.5-0.2c0-0.1,7.8-0.2,17.5-0.2     C240.4,70.5,248.2,70.6,248.2,70.8z"/>
                <path class="st5" d="M209.9,92.9c-2.9,0.3-5.9,0.3-8.8,0C204,92.6,207,92.6,209.9,92.9z"/>
                <path class="st7" d="M247.2,92.9c0,0.1-7.8,0.2-17.4,0.2c-9.6,0-17.4-0.1-17.4-0.2c0-0.1,7.8-0.2,17.5-0.2     C239.4,92.6,247.2,92.8,247.2,92.9z"/>
                <path class="st7" d="M235.3,103c0,0.1-7.8,0.2-17.4,0.2c-9.6,0-17.5-0.1-17.5-0.2s7.8-0.2,17.5-0.2     C227.5,102.8,235.3,102.9,235.3,103z"/>
                <path class="st7" d="M214.8,77c-2,0.2-4.1,0.3-6.2,0.2c-2.1,0.1-4.1,0-6.2-0.2c2-0.2,4.1-0.3,6.2-0.2     C210.7,76.7,212.7,76.8,214.8,77z"/>
                <path class="st7" d="M214.5,86.1c-2,0.2-4.1,0.3-6.2,0.2c-2.1,0.1-4.1,0-6.2-0.2c2-0.2,4.1-0.3,6.2-0.2     C210.4,85.9,212.4,85.9,214.5,86.1z"/>
                <path class="st7" d="M224.9,99.2c-2,0.2-4.1,0.3-6.2,0.2c-2.1,0.1-4.1,0-6.2-0.2c2-0.2,4.1-0.3,6.2-0.2     C220.8,98.9,222.8,99,224.9,99.2z"/>
                <path class="st5" d="M259.6,77c0,0.1-7.1,0.2-15.7,0.2s-15.7-0.1-15.7-0.2c0-0.1,7.1-0.2,15.7-0.2S259.6,76.9,259.6,77z"/>
                <path class="st5" d="M249.9,86.7c0,0.1-7.1,0.2-15.7,0.2s-15.7-0.1-15.7-0.2s7.1-0.2,15.7-0.2S249.9,86.6,249.9,86.7z"/>
                <path class="st5" d="M260.7,99.2c0,0.1-7.1,0.2-15.7,0.2s-15.7-0.1-15.7-0.2S236.3,99,245,99S260.7,99.1,260.7,99.2z"/>
                <path class="st5" d="M232,110.4c0,0.1-7.1,0.2-15.7,0.2s-15.8-0.1-15.8-0.2s7.1-0.2,15.7-0.2S232,110.3,232,110.4z"/>
                <path class="st5" d="M266.8,110.4c0,0.1-7.1,0.2-15.7,0.2c-8.7,0-15.7-0.1-15.7-0.2c0-0.1,7.1-0.2,15.7-0.2     C259.8,110.2,266.8,110.3,266.8,110.4z"/>
                <path class="st5" d="M232,114.1c0,0.1-7.1,0.2-15.7,0.2s-15.8-0.1-15.8-0.2c0-0.1,7.1-0.2,15.7-0.2S232,113.9,232,114.1z"/>
                <path class="st5" d="M233.5,79.6c0,0.1-7.1,0.2-15.7,0.2S202,79.7,202,79.6c0-0.1,7.1-0.2,15.7-0.2S233.5,79.5,233.5,79.6z"/>
                <path class="st6" d="M225.1,77c-1.3,0.2-2.7,0.3-4.1,0.2c-1.4,0.1-2.7,0-4.1-0.2C219.7,76.7,222.4,76.7,225.1,77z"/>
                <path class="st6" d="M208.8,95.9c-2.7,0.3-5.4,0.3-8.1,0C203.4,95.6,206.1,95.6,208.8,95.9z"/>
                <path class="st6" d="M208.6,99.2c-2.7,0.3-5.4,0.3-8.1,0C203.2,98.9,206,98.9,208.6,99.2z"/>
                <path class="st5" d="M278.9,65.2c0,0.1-19.6,0.2-43.8,0.2s-43.8-0.1-43.8-0.2s19.6-0.2,43.8-0.2S278.9,65.1,278.9,65.2z"/>
                <circle class="st2" cx="197.2" cy="62.3" r="1"/>
                <circle class="st2" cx="201.6" cy="62.3" r="1"/>
                <circle class="st2" cx="206.1" cy="62.3" r="1"/>
                <rect x="145.2" y="317.9" class="st5" width="5.6" height="7.6"/>
                <rect x="180.6" y="226.7" class="st5" width="49.5" height="2.4"/>
                <polygon class="st5" points="237.8,229.1 247,194.3 208.4,194.3 200,229.1    "/>
                <polygon class="st0" points="202.3,226.5 236.8,226.5 244.9,195.9 210.2,195.9    "/>
                <polygon class="st1" points="211,201.9 208.9,210.5 231.8,210.5 234.2,201.9    "/>
                <path class="st6" d="M229.4,200.7c0,0.1-4,0.2-9,0.2s-9-0.1-9-0.2s4-0.2,9-0.2C225.4,200.5,229.4,200.6,229.4,200.7z"/>
                <path class="st5" d="M219,203.5c-2.4,0.2-4.8,0.2-7.2,0C214.1,203.3,216.6,203.3,219,203.5z"/>
                <path class="st5" d="M224.8,203.4c-1.6,0.2-3.1,0.2-4.7,0C221.6,203.2,223.2,203.2,224.8,203.4z"/>
                <path class="st6" d="M231.3,205.1c0,0.1-4.4,0.2-9.9,0.2s-9.9-0.1-9.9-0.2s4.4-0.2,9.9-0.2S231.3,205,231.3,205.1z"/>
                <path class="st7" d="M217.5,206.5c-2.1,0.2-4.3,0.2-6.4,0C213.3,206.3,215.4,206.3,217.5,206.5z"/>
                <path class="st6" d="M229.5,208.6c0,0.1-4.1,0.2-9.2,0.2c-5.1,0-9.2-0.1-9.2-0.2c0-0.1,4.1-0.2,9.2-0.2     C225.4,208.4,229.5,208.5,229.5,208.6z"/>
                <path class="st6" d="M216,213c-2.4,0.2-4.7,0.2-7.1,0C211.3,212.8,213.7,212.8,216,213z"/>
                <path class="st5" d="M222.1,213c-0.8,0.2-1.6,0.2-2.4,0.1c-0.8,0.1-1.6,0-2.4-0.2c0.8-0.2,1.6-0.2,2.4-0.1     C220.5,212.8,221.3,212.8,222.1,213z"/>
                <path class="st5" d="M225.5,212.8c0,0.1-0.5,0.2-1,0.2s-1-0.1-1-0.2c0-0.1,0.5-0.2,1-0.2S225.5,212.7,225.5,212.8z"/>
                <path class="st7" d="M211.3,214.8c0,0.1-0.5,0.2-1.1,0.2s-1.1-0.1-1.1-0.2c0-0.1,0.5-0.2,1.1-0.2S211.3,214.7,211.3,214.8z"/>
                <path class="st5" d="M218.1,214.8c-1.8,0.2-3.6,0.2-5.4,0C214.5,214.5,216.3,214.5,218.1,214.8z"/>
                <path class="st6" d="M234.2,214.6c0,0.1-3.2,0.2-7.2,0.2s-7.2-0.1-7.2-0.2s3.2-0.2,7.2-0.2S234.2,214.5,234.2,214.6z"/>
                <path class="st5" d="M211,216.6c0,0.1-0.5,0.2-1.2,0.2c-0.6,0-1.2-0.1-1.2-0.2c0-0.1,0.5-0.2,1.2-0.2     C210.5,216.4,211,216.5,211,216.6z"/>
                <path class="st5" d="M214.5,216.5c-0.9,0.2-1.9,0.2-2.8,0C212.7,216.3,213.6,216.3,214.5,216.5z"/>
                <path class="st6" d="M225.1,216.4c-1.5,0.2-3,0.2-4.5,0.2c-1.5,0.1-3,0-4.5-0.2c1.5-0.2,3-0.2,4.5-0.2     C222.1,216.2,223.6,216.2,225.1,216.4z"/>
                <path class="st6" d="M219.5,219.6c-1.8,0.2-3.7,0.2-5.5,0.2c-1.8,0.1-3.7,0-5.5-0.2c1.8-0.2,3.7-0.2,5.5-0.2     C215.9,219.4,217.7,219.4,219.5,219.6z"/>
                <path class="st7" d="M225.9,219.5c-1.7,0.2-3.3,0.2-5,0C222.6,219.2,224.3,219.2,225.9,219.5z"/>
                <path class="st5" d="M235.4,219.5c-2.7,0.2-5.5,0.2-8.2,0C229.9,219.2,232.7,219.2,235.4,219.5z"/>
                <path class="st5" d="M233.2,200.6c0,0.1-0.4,0.2-0.8,0.2c-0.5,0-0.9-0.1-0.9-0.2c0-0.1,0.4-0.2,0.9-0.2S233.2,200.5,233.2,200.6z     "/>
                <path class="st7" d="M215.9,199.4c-1.2,0.2-2.5,0.2-3.8,0C213.4,199.2,214.6,199.2,215.9,199.4z"/>
                <path class="st3" d="M244.3,198.1h-34.7l0.6-2.2h34.7L244.3,198.1z"/>
                <circle class="st4" cx="211.6" cy="197.1" r="0.4"/>
                <circle class="st4" cx="213" cy="197.1" r="0.4"/>
                <circle class="st4" cx="214.3" cy="197.1" r="0.4"/>
                <rect x="204.3" y="232.3" class="st5" width="82.2" height="48"/>
                <rect x="204.3" y="232.3" class="st6" width="37.5" height="48"/>
                <path class="st5" d="M238,248.6c0-0.1,0-0.2,0-0.2v-0.7c0-0.6,0-1.5,0-2.7c0-2.3,0-5.6-0.1-9.7l0.1,0.1l-30.1,0     c-0.2,0.1,0.2-0.2,0.2-0.2l0,0v6.9c0,2.2,0,4.4,0,6.5l-0.2-0.2l21.6,0.1l6.3,0h1.7h0.4L238,248.6l-0.1-0.1h-0.4l-1.7,0.1l-6.2,0     l-21.7,0.1h-0.2v-0.2c0-2.1,0-4.2,0-6.5c0-1.1,0-2.2,0-3.4v-3.5l0,0c0,0,0.3-0.3,0.2-0.2l30.1,0h0.1v0.1c0,4.1,0,7.5-0.1,9.8     c0,1.1,0,2,0,2.6v0.7C238,248.6,238,248.6,238,248.6z"/>
                <path class="st5" d="M224.2,242c-0.1-0.4-0.3-0.7-0.6-0.9c-0.3-0.2-0.7-0.3-1.1-0.1c-0.4,0.2-0.7,0.6-0.7,1.1     c0,0.5,0.3,0.9,0.7,1.1c0.4,0.1,0.7,0.1,1.1-0.1C223.9,242.7,224.1,242.4,224.2,242c0,0,0,0.1,0,0.4c-0.1,0.3-0.2,0.6-0.5,0.8     c-0.4,0.3-0.9,0.4-1.3,0.2c-0.7-0.3-1.1-1.1-0.9-1.8c0.1-0.4,0.5-0.7,0.9-0.9c0.5-0.2,1-0.1,1.3,0.2c0.3,0.2,0.5,0.4,0.5,0.8     C224.2,241.9,224.2,242,224.2,242z"/>
                <path class="st5" d="M238,263.3c0-0.1,0-0.2,0-0.3v-0.7c0-0.6,0-1.5,0-2.7c0-2.3,0-5.6-0.1-9.7l0.1,0.1l-30.1,0.1     c-0.2,0.1,0.2-0.2,0.2-0.2l0,0v6.9c0,2.2,0,4.4,0,6.5l-0.2-0.2l21.6,0.1l6.3,0h1.7h0.4L238,263.3l-0.1,0h-0.4h-1.7l-6.2,0     l-21.7,0.1h-0.2v-0.2c0-2.1,0-4.2,0-6.5c0-1.1,0-2.2,0-3.4V250l0,0l0.2-0.2l30.1,0.1h0.1v0.1c0,4.1,0,7.5-0.1,9.8     c0,1.1,0,2,0,2.6v0.7C238,263.3,238,263.3,238,263.3z"/>
                <path class="st5" d="M224.2,256.7c-0.1-0.4-0.3-0.7-0.6-0.9c-0.3-0.2-0.7-0.3-1.1-0.1c-0.4,0.2-0.7,0.6-0.7,1.1     c0,0.5,0.3,0.9,0.7,1.1c0.4,0.1,0.8,0.1,1.1-0.1C223.9,257.3,224.1,257,224.2,256.7c0,0,0.1,0.1,0,0.3c-0.1,0.3-0.2,0.6-0.5,0.8     c-0.4,0.3-0.9,0.4-1.3,0.2c-0.7-0.3-1.1-1.1-0.9-1.8c0.1-0.4,0.5-0.7,0.9-0.9c0.5-0.2,1-0.1,1.3,0.2c0.2,0.2,0.4,0.5,0.5,0.8     C224.2,256.5,224.2,256.7,224.2,256.7z"/>
                <path class="st5" d="M238,278c0-0.1,0-0.2,0-0.2V277c0-0.6,0-1.5,0-2.7c0-2.3,0-5.6-0.1-9.7l0.1,0.1l-30.1,0     c-0.2,0.1,0.2-0.2,0.2-0.2l0,0v6.9c0,2.2,0,4.4,0,6.5l-0.2-0.2l21.6,0.1l6.3,0h1.7h0.4L238,278l-0.1-0.1h-0.4h-1.7l-6.2,0     l-21.7,0.1h-0.2v-0.2c0-2.1,0-4.2,0-6.5c0-1.1,0-2.2,0-3.4v-3.5l0,0c0,0,0.3-0.3,0.2-0.2l30.1,0h0.1v0.1c0,4.1,0,7.5-0.1,9.8     c0,1.1,0,2,0,2.6v0.7C238,277.9,238,278,238,278z"/>
                <path class="st5" d="M224.2,271.3c-0.1-0.4-0.3-0.7-0.6-0.9c-0.3-0.2-0.7-0.3-1.1-0.1c-0.4,0.2-0.7,0.6-0.7,1.1     c0,0.5,0.3,0.9,0.7,1.1c0.4,0.1,0.8,0.1,1.1-0.1C223.9,272,224.1,271.7,224.2,271.3c0,0,0.1,0.1,0,0.3c-0.1,0.3-0.2,0.6-0.5,0.8     c-0.4,0.3-0.9,0.4-1.3,0.2c-0.7-0.3-1.1-1.1-0.9-1.8c0.1-0.4,0.5-0.7,0.9-0.9c0.5-0.2,1-0.1,1.3,0.2c0.2,0.2,0.4,0.5,0.5,0.8     C224.2,271.2,224.2,271.3,224.2,271.3z"/>
                <polygon class="st5" points="149.5,319.4 94.6,319.4 94.6,232.3 149.5,232.3    "/>
                <rect x="91.9" y="229" class="st5" width="197.6" height="4.6"/>
                <rect x="94.6" y="233.6" class="st5" width="6.1" height="92.3"/>
                <rect x="280.4" y="233.6" class="st5" width="6.1" height="92.3"/>
                <rect x="241.8" y="233.6" class="st5" width="6.1" height="92.3"/>
                <path class="st6" d="M119.7,229c0,0.1-5.9,0.2-13.2,0.2s-13.2-0.1-13.2-0.2s5.9-0.2,13.2-0.2S119.7,228.9,119.7,229z"/>
                <path class="st7" d="M177.5,321.4l0.2-6.6l-12.4-0.4L165,324l0.8,0.1c3.4,0.3,17.3,1.2,19.6,0.6     C187.9,324.1,177.5,321.4,177.5,321.4z"/>
                <g class="st8">
                    <path class="st2" d="M182.6,322.9c0,0,3.6,1.2,3.2,1.8c-0.5,0.6-14.6,0.2-20.8-0.6v-0.3l16.5,0.6      C181.4,324.4,181.9,322.9,182.6,322.9z"/>
                </g>
                <path class="st5" d="M164.8,323.8c0.1,0,0.1,0,0.2,0l0.6,0.1l2.2,0.2c1.9,0.1,4.5,0.3,7.4,0.4c2.9,0.1,5.5,0.1,7.4,0.1h2.2h0.6     h0.2h-0.2h-0.6h-2.2c-1.9,0-4.5-0.1-7.4-0.2c-2.9-0.1-5.5-0.2-7.4-0.3l-2.2-0.1H165L164.8,323.8z"/>
                <path class="st5" d="M181.4,324.6c0.1-0.4,0.3-0.7,0.4-1.1c0.2-0.3,0.5-0.6,0.8-0.8C181.9,323,181.4,323.8,181.4,324.6     L181.4,324.6z"/>
                <path class="st5" d="M177.8,322.7c0,0,0.2-0.2,0.4-0.5c0.2-0.3,0.3-0.5,0.3-0.5c0,0-0.2,0.2-0.4,0.5     C177.9,322.4,177.8,322.6,177.8,322.7z"/>
                <path class="st5" d="M176.9,322.1c0,0,0.2-0.1,0.4-0.3c0.2-0.2,0.4-0.4,0.3-0.4c0,0-0.2,0.1-0.4,0.3     C177,321.9,176.8,322.1,176.9,322.1z"/>
                <path class="st5" d="M176.3,320.9c0.2,0.1,0.4,0.1,0.6,0.1c0.2,0,0.4,0,0.6-0.1c-0.2-0.1-0.4-0.1-0.6-0.1     C176.6,320.8,176.3,320.9,176.3,320.9z"/>
                <path class="st5" d="M176.1,320.1c0.2,0.1,0.5,0.2,0.7,0.2c0.3,0,0.5,0,0.7-0.1c-0.2,0-0.5-0.1-0.7-0.1     C176.6,320.1,176.3,320.1,176.1,320.1z"/>
                <path class="st5" d="M178.3,321.6c0.3,0,0.5,0,0.8,0c0.3,0,0.6-0.1,0.9-0.2c0.2,0,0.3-0.1,0.5-0.2c0.1-0.1,0.2-0.1,0.2-0.2     c0-0.1,0-0.2-0.1-0.3c-0.6-0.3-1.4-0.2-1.8,0.4c-0.1,0.2-0.2,0.3-0.3,0.5c0,0.1,0,0.2,0,0.2c0.1-0.2,0.2-0.5,0.4-0.6     c0.2-0.2,0.4-0.3,0.7-0.4c0.3-0.1,0.7-0.1,0.9,0.1c0.1,0.1,0.1,0.2-0.1,0.3c-0.1,0.1-0.3,0.1-0.5,0.2c-0.3,0.1-0.5,0.1-0.8,0.2     C178.6,321.6,178.3,321.6,178.3,321.6z"/>
                <path class="st5" d="M178.5,321.6c0.1-0.2,0.1-0.4,0.1-0.5c0-0.2-0.1-0.4-0.2-0.6c-0.1-0.2-0.4-0.4-0.6-0.4     c-0.2,0-0.3,0.2-0.3,0.4c0,0.1,0.1,0.2,0.1,0.4c0.1,0.2,0.2,0.3,0.4,0.5C178.1,321.4,178.3,321.5,178.5,321.6     c-0.1,0-0.2-0.2-0.4-0.4c-0.1-0.2-0.2-0.3-0.3-0.5c-0.1-0.2-0.2-0.5,0-0.5c0.2,0,0.4,0.2,0.5,0.4c0.1,0.2,0.2,0.3,0.2,0.5     C178.5,321.3,178.5,321.5,178.5,321.6z"/>
                <path class="st5" d="M165.1,320.4c0,0,0.4,0,0.9,0.1c1.5,0.2,2.7,1.2,3.2,2.7c0.1,0.3,0.2,0.6,0.2,0.9c0-0.1,0-0.2,0-0.3     c0-0.2-0.1-0.5-0.1-0.7c-0.4-1.5-1.7-2.6-3.3-2.8c-0.2,0-0.5,0-0.7,0C165.3,320.3,165.2,320.4,165.1,320.4z"/>
                <path class="st5" d="M166.6,315.3c-0.1,0.8-0.2,1.7-0.2,2.5c-0.1,0.9-0.1,1.7,0,2.6c0.1-0.9,0.2-1.7,0.2-2.6     C166.6,317,166.6,316.1,166.6,315.3z"/>
                <path class="st5" d="M171,322.9c0.6,0.2,1.2,0.2,1.8,0.2c0.6,0,1.2,0,1.8-0.1c0,0-0.8,0-1.8-0.1C171.8,323,171,322.9,171,322.9z"/>
                <path class="st5" d="M168.6,322.9c0,0,0.1,0.2,0.1,0.4c0.1,0.2,0.1,0.4,0.2,0.4s0.1-0.2,0-0.4C168.8,323,168.6,322.8,168.6,322.9     z"/>
                <path class="st5" d="M167.7,321.7c0,0,0,0.2,0.2,0.3s0.3,0.2,0.3,0.2c0,0-0.1-0.2-0.2-0.3C167.9,321.8,167.8,321.7,167.7,321.7z"/>
                <path class="st5" d="M166.4,321.1c0,0,0.2,0,0.3,0.1c0.2,0.1,0.3,0.2,0.3,0.1c0,0-0.1-0.2-0.3-0.3     C166.6,321,166.4,321.1,166.4,321.1z"/>
                <path class="st5" d="M165.5,320.9c0,0,0.1,0.1,0.2,0.1c0.1,0,0.2,0,0.2,0c0,0-0.1-0.1-0.2-0.1S165.5,320.8,165.5,320.9z"/>
                <g class="st9">
                    <polygon points="165.2,320.1 177.5,320.2 177.6,318.7 165.1,319.3     "/>
                </g>
                <path class="st7" d="M197,322.4v-6.6l-12.4,0l-0.1,9.6l0.8,0.1c3.4,0.2,17.3,0.8,19.7,0.1C207.5,324.8,197,322.4,197,322.4z"/>
                <g class="st8">
                    <path class="st2" d="M202.1,323.8c0,0,3.7,1.1,3.2,1.7c-0.5,0.6-14.6,0.5-20.8,0v-0.3l16.5,0.2      C201,325.4,201.4,323.8,202.1,323.8z"/>
                </g>
                <path class="st5" d="M184.4,325.2h0.2l0.6,0l2.2,0.1c1.9,0.1,4.5,0.1,7.4,0.2c2.9,0,5.5,0,7.4-0.1l2.2-0.1l0.6,0h0.2h-0.8l-2.2,0     c-1.9,0-4.5,0.1-7.4,0c-2.9,0-5.5-0.1-7.4-0.1l-2.2-0.1H184.4z"/>
                <path class="st5" d="M201,325.5c0.1-0.4,0.2-0.7,0.4-1.1c0.2-0.3,0.5-0.6,0.8-0.9c-0.4,0.1-0.7,0.4-0.9,0.8     C201.1,324.7,201,325.1,201,325.5z"/>
                <path class="st5" d="M197.4,323.7c0,0,0.2-0.2,0.4-0.5c0.2-0.3,0.3-0.5,0.3-0.6c0,0-0.2,0.2-0.4,0.5     C197.5,323.4,197.3,323.6,197.4,323.7z"/>
                <path class="st5" d="M196.4,323.1c0,0,0.2-0.1,0.4-0.3c0.2-0.2,0.4-0.4,0.3-0.4c0,0-0.2,0.1-0.4,0.3     C196.5,322.9,196.4,323.1,196.4,323.1z"/>
                <path class="st5" d="M195.8,321.9c0.2,0.1,0.4,0.1,0.6,0.1c0.2,0,0.4,0,0.6-0.1c-0.2-0.1-0.4-0.1-0.6-0.1     C196,321.9,195.8,321.9,195.8,321.9z"/>
                <path class="st5" d="M195.5,321.1c0.5,0.2,1,0.3,1.5,0.1c-0.2,0-0.5-0.1-0.7-0.1C196,321.2,195.8,321.1,195.5,321.1z"/>
                <path class="st5" d="M197.8,322.6c0.3,0,0.5,0,0.8,0c0.3,0,0.6-0.1,0.8-0.2c0.2,0,0.3-0.1,0.5-0.2c0.1-0.1,0.2-0.1,0.2-0.3     c0-0.1,0-0.2-0.1-0.3c-0.6-0.3-1.4-0.1-1.8,0.4c-0.1,0.2-0.2,0.3-0.3,0.5c0,0.1,0,0.2,0,0.2c0.1-0.2,0.2-0.5,0.4-0.7     c0.2-0.2,0.4-0.4,0.7-0.4c0.3-0.1,0.7-0.1,0.9,0.1c0.1,0.1,0.1,0.2-0.1,0.3c-0.1,0.1-0.3,0.1-0.4,0.2c-0.3,0.1-0.5,0.2-0.8,0.2     C198.1,322.6,197.8,322.6,197.8,322.6z"/>
                <path class="st5" d="M198,322.6c0.1-0.2,0.1-0.4,0.1-0.5c0-0.2-0.1-0.4-0.2-0.6c-0.1-0.2-0.4-0.4-0.6-0.4c-0.2,0-0.3,0.2-0.2,0.4     c0,0,0,0,0,0c0,0.1,0.1,0.2,0.1,0.4c0.1,0.2,0.2,0.3,0.4,0.5C197.8,322.5,198,322.6,198,322.6c0,0-0.2-0.2-0.4-0.4     c-0.1-0.1-0.2-0.3-0.3-0.5c-0.1-0.2-0.2-0.5,0-0.5c0.2,0,0.4,0.2,0.5,0.3c0.1,0.2,0.2,0.3,0.2,0.5C198,322.3,198,322.5,198,322.6     z"/>
                <path class="st5" d="M184.6,321.7c0,0,0.4,0,0.9,0c0.7,0.1,1.4,0.4,2,0.8c0.6,0.5,1,1.1,1.2,1.8c0.2,0.5,0.2,0.9,0.2,0.9     c0-0.1,0-0.2,0-0.3c0-0.2-0.1-0.4-0.1-0.6c-0.2-0.7-0.7-1.4-1.2-1.9c-0.6-0.5-1.3-0.8-2.1-0.8c-0.2,0-0.5,0-0.7,0     C184.7,321.7,184.6,321.7,184.6,321.7z"/>
                <path class="st5" d="M185.9,316.6c-0.1,0.9-0.1,1.7-0.1,2.6c0,0.9,0,1.7,0,2.6c0.1-0.9,0.1-1.7,0.1-2.6     C186,318.3,186,317.5,185.9,316.6z"/>
                <path class="st5" d="M190.6,324.1c1.2,0.2,2.4,0.2,3.6,0c0,0-0.8,0-1.8,0C191.4,324.2,190.6,324.1,190.6,324.1z"/>
                <path class="st5" d="M188.2,324.1c0,0,0.1,0.2,0.1,0.4c0.1,0.2,0.1,0.4,0.2,0.3s0.1-0.2,0-0.4     C188.3,324.2,188.2,324.1,188.2,324.1z"/>
                <path class="st5" d="M187.3,323c0,0,0.1,0.2,0.2,0.3c0.1,0.1,0.3,0.2,0.3,0.2c0,0-0.1-0.2-0.2-0.3     C187.4,323,187.3,322.9,187.3,323z"/>
                <path class="st5" d="M185.9,322.5c0,0,0.2,0,0.4,0.1c0.2,0.1,0.3,0.2,0.3,0.1s-0.1-0.2-0.3-0.3S185.9,322.4,185.9,322.5z"/>
                <path class="st5" d="M185,322.2c0,0,0.1,0.1,0.2,0.1c0.1,0,0.2,0,0.2,0s-0.1-0.1-0.2-0.1S185,322.2,185,322.2z"/>
                <g class="st9">
                    <polygon points="184.6,321.4 197,321.3 197,319.8 184.6,320.6     "/>
                </g>
                <path class="st10" d="M169.7,209.4l5,14.9c1.3,4,4.9,4.7,9.1,4.7h27.6v-6.2l-25.2-3.6l-6-15.3L169.7,209.4z"/>
                <path class="st10" d="M214.3,221.5l2.2-1c0,0,2.4-4.6,2.9-4.4s0.7,1.5-0.3,3.6l2.9-0.8c0,0,6.3,2.9,6,3.3     c-0.3,0.7-1.2,1.1-1.9,0.8c-0.1,0-0.2-0.1-0.3-0.1c-1.4-0.7-3.2-1.5-3.2-1.5l-3.4,1l4.4,0.6l4.1,3.7c-0.7,0.6-1.8,0.5-2.5-0.1     l-10.7,2.3l-3.3,0.2v-6.2L214.3,221.5z"/>
                <path class="st11" d="M225.3,226.5c0,0-0.2-0.3-0.6-0.7c-0.2-0.2-0.5-0.4-0.8-0.6c-0.4-0.2-0.8-0.3-1.2-0.3     c-1.1-0.1-2.2-0.3-3.2-0.5c1.1,0,2.2,0,3.2,0.2c0.4,0,0.9,0.2,1.3,0.4c0.3,0.2,0.6,0.4,0.8,0.7     C225.1,225.9,225.3,226.2,225.3,226.5z"/>
                <path class="st11" d="M223.7,226.9c0,0-0.1-0.2-0.4-0.3c-0.3-0.1-0.8-0.1-1.3-0.2c-0.6,0-1.3-0.1-1.9-0.2     c0.6-0.2,1.3-0.3,1.9-0.1c0.5,0,0.9,0.1,1.3,0.3c0.2,0.1,0.3,0.2,0.3,0.3C223.7,226.9,223.7,226.9,223.7,226.9z"/>
                <path class="st10" d="M146.4,148l-1.5,30.3l13,1.2l0.7-7.4c0,0,4.6,1.1,6-3.1c0.9-2.7,1.7-23.9,1.7-23.9L146.4,148z"/>
                <path class="st5" d="M167.4,148.8c0.4,2.8-3.6,4.5-3.6,4.5l-0.7,6.7c-0.6,0-1.2,0-1.9,0c0.3-3.1-3.7-2.5-4.1-0.4     c-0.4,2.1,1.9,3.4,1.9,3.4c-1.6,2.5-2.3,3.8-4.6,6.1c-2.5,2.5-3.9,2.7-6.4,2.7l-2.8-0.2c0,0-1-2.4-1.7-8.1     c-0.4-2.7-2.5-6.4-1.9-10.8c1.7-12.7,13.9-11.4,13.9-11.4C161.8,141.5,166.6,142.2,167.4,148.8z"/>
                <path class="st5" d="M158.1,141.7c2.8,0.1,5.6,0.3,8,1.6c2.4,1.3,4.3,4,3.8,6.7l-1.4,0.3l-0.6-1v1.6l-2.4,0.6     c-0.4-2.1-1.1-4-2.1-5.9"/>
                <path class="st6" d="M146.9,155.6c-0.1-0.1-0.2-0.3-0.2-0.5c-0.2-0.4-0.3-0.9-0.3-1.4c-0.5-3.2,0.5-6.4,2.7-8.7     c0.3-0.3,0.7-0.7,1.1-0.9c0.1-0.1,0.3-0.2,0.4-0.3c0,0-0.6,0.5-1.3,1.4c-1,1.2-1.8,2.5-2.2,4c-0.4,1.5-0.6,3-0.4,4.5     C146.8,154.9,147,155.6,146.9,155.6z"/>
                <path class="st6" d="M149.5,154.5c-0.2-0.5-0.4-1-0.5-1.6c-0.6-2.6-0.3-5.3,0.7-7.8c0.2-0.5,0.4-1,0.8-1.4     c-0.7,1.7-1.2,3.5-1.4,5.3C149,150.9,149.1,152.8,149.5,154.5z"/>
                <path class="st6" d="M166.1,149.8c-0.1,0-0.2-0.8-0.7-1.9c-1.4-3.1-4.4-5.1-7.8-5.2c-1.3-0.1-2,0.1-2.1,0.1     c0.2-0.1,0.4-0.1,0.5-0.2c0.5-0.1,1-0.1,1.5-0.1c3.5,0,6.7,2.1,8,5.4c0.2,0.5,0.3,1,0.4,1.5C166.1,149.5,166.1,149.7,166.1,149.8     z"/>
                <path class="st5" d="M147.3,139.2c0.7,0.2,1.4,0.5,1.9,1.1c0.6,0.5,0.9,1.1,1.1,1.9c-0.1,0-0.5-0.8-1.3-1.6     C148.2,139.7,147.3,139.3,147.3,139.2z"/>
                <path class="st6" d="M150.4,139.2c0.1,0-0.1,0.7-0.1,1.6s0.3,1.5,0.2,1.5c-0.4-0.4-0.5-1-0.5-1.5     C149.9,140.2,150,139.7,150.4,139.2z"/>
                <path class="st7" d="M167.4,206.1l2.1,7.2l13.5-6.1c-0.5-1.5-2.7-8.2-7-18.8c-2.4-5.9-7.6-10.2-13.9-11.2     c-4.2-0.8-8.5-1.2-12.8-1.3c-7.5,0.1-18.6,4.8-20.1,12.2c-1.1,5.6,0,15.6,0,27.7l1,23.1l38.6,1.3L167.4,206.1z"/>
                <g class="st9">
                    <path d="M129,210.4c4.7,1,9.5,0,14.3-0.3c2.9-0.2,6.1-0.5,8.4,1.3c1.8,1.4,2.6,3.8,3.1,6c2,8.6,2.4,14.3,2.8,23.1l-23.3,1.4      L129,210.4z"/>
                </g>
                <path class="st4" d="M174.8,186.2c0,0.1-10.1,0.2-22.7,0.2s-22.7-0.1-22.7-0.2c0-0.1,10.1-0.2,22.7-0.2S174.8,186.1,174.8,186.2z     "/>
                <path class="st4" d="M177.6,192.7c0,0.1-11,0.2-24.6,0.2c-13.6,0-24.6-0.1-24.6-0.2c0-0.1,11-0.2,24.6-0.2     C166.6,192.5,177.6,192.6,177.6,192.7z"/>
                <path class="st4" d="M181.2,200.8c0,0.1-11.8,0.2-26.3,0.2s-26.3-0.1-26.3-0.2c0-0.1,11.8-0.2,26.3-0.2S181.2,200.7,181.2,200.8z     "/>
                <path class="st4" d="M167,209.6c0,0.1-3.7,0.2-8.2,0.2s-8.2-0.1-8.2-0.2c0-0.1,3.7-0.2,8.2-0.2S167,209.5,167,209.6z"/>
                <path class="st4" d="M167.8,219.1c0,0.1-3.9,0.1-8.6,0.1c-4.7,0-8.6-0.1-8.6-0.2c0-0.1,3.9-0.1,8.6-0.1     C164,218.9,167.8,219,167.8,219.1z"/>
                <path class="st4" d="M168.2,226.9c-0.2,0-0.5,0.1-0.7,0l-1.8,0c-1.6,0-3.7-0.1-6.1-0.1s-4.5,0-6.1,0.1l-1.8,0c-0.2,0-0.5,0-0.7,0     c0.2-0.1,0.4-0.1,0.7-0.1c0.4,0,1.1-0.1,1.8-0.1c1.6-0.1,3.7-0.2,6.1-0.2s4.5,0.1,6.1,0.2c0.8,0,1.4,0.1,1.8,0.1     C167.8,226.8,168,226.8,168.2,226.9z"/>
                <path class="st4" d="M168.1,233.1c0,0.1-3.8,0.2-8.5,0.2s-8.5-0.1-8.5-0.2s3.8-0.2,8.5-0.2S168.1,233,168.1,233.1z"/>
                <path class="st4" d="M169.2,179.8c0,0.1-7.4,0.2-16.6,0.2c-9.2,0-16.6-0.1-16.6-0.2c0-0.1,7.4-0.2,16.6-0.2     C161.8,179.6,169.2,179.7,169.2,179.8z"/>
                <path class="st5" d="M168.3,181c0,0-0.4,0.1-1,0.3c-0.9,0.4-1.7,1-2.2,1.8c-0.8,1.2-1.3,2.6-1.3,4c-0.1,1.8,0.1,3.5,0.4,5.3     c0.5,3.2,1.3,6.4,2.2,9.5c0.3,1.2,0.6,2.1,0.8,2.8c0.1,0.3,0.2,0.7,0.3,1.1c-0.2-0.3-0.3-0.7-0.4-1c-0.2-0.6-0.5-1.6-0.9-2.8     c-1-3.1-1.7-6.3-2.2-9.5c-0.3-1.8-0.5-3.6-0.4-5.4c0.1-1.5,0.6-2.9,1.5-4.1c0.6-0.8,1.4-1.4,2.4-1.8c0.3-0.1,0.5-0.1,0.8-0.2     C168.2,181,168.2,181,168.3,181z"/>
                <path class="st5" d="M182.5,205.4c-0.6,0.4-1.2,0.8-1.9,1.1c-1.2,0.6-2.9,1.4-4.7,2.3c-1.9,0.8-3.6,1.6-4.9,2     c-0.7,0.3-1.4,0.5-2.1,0.7c0.6-0.4,1.3-0.7,2-0.9c1.2-0.5,2.9-1.3,4.8-2.1s3.6-1.6,4.8-2.2C181.1,205.9,181.8,205.6,182.5,205.4z     "/>
                <path class="st5" d="M141.9,239.3l46.2,1.6c7.5,0.3,13.4,6.5,13.3,14l-1.9,65.9l-17.8-0.6l1.3-61.7l-41-1.1L141.9,239.3z"/>
                <path class="st5" d="M122.8,239.3l46.2,1.6c7.5,0.3,13.4,6.5,13.3,14l-1.9,65.9l-18-1.5l1.5-60.9l-41-1.1L122.8,239.3z"/>
                <rect x="152.8" y="263.2" class="st6" width="4.5" height="54.4"/>
                <path class="st6" d="M114.7,210.4v40.1c0,5.3,4.3,9.5,9.5,9.5h26.7v-49.6c0-2.3-1.9-4.2-4.2-4.2c0,0,0,0,0,0H119     C116.6,206.2,114.7,208.1,114.7,210.4z"/>
                <path class="st6" d="M186.8,263.2h-65c0-3.9,3.2-7.1,7.1-7.1h50.8C183.7,256.2,186.8,259.3,186.8,263.2L186.8,263.2z"/>
                <path class="st5" d="M150.9,255.2c0,0.1,0,0.2,0,0.3c0,0.3,0,0.6-0.1,0.9c-0.4,1.9-1.9,3.3-3.8,3.6c-0.9,0.1-1.7,0.1-2.6,0.1     h-5.8c-4.1,0-7.9,0-10.6,0l-3.2,0l-0.9,0c-0.1,0-0.2,0-0.3,0c0.1,0,0.2,0,0.3,0h0.9l3.2-0.1c2.7,0,6.5-0.1,10.6-0.1h5.8     c0.8,0,1.7,0,2.5-0.1c0.7-0.1,1.4-0.4,2-0.8c0.9-0.6,1.5-1.5,1.8-2.6C150.8,256,150.9,255.6,150.9,255.2z"/>
                <path class="st5" d="M159.1,263.4c-1.3,0.2-2.7,0.2-4,0.2c-1.3,0.1-2.7,0-4-0.2c1.3-0.2,2.7-0.2,4-0.2     C156.4,263.2,157.8,263.2,159.1,263.4z"/>
                <path class="st6" d="M178.9,260.3c-0.2-0.6-0.3-1.3-0.4-1.9c-0.2-1.2-0.5-3-0.8-5.2c-0.3-2.2-0.6-4.9-1.8-7.5     c-0.6-1.4-1.5-2.7-2.4-3.9c-1-1.3-2.3-2.4-3.6-3.3c-1.3-0.9-2.8-1.6-4.4-2.1c-1.5-0.5-3-0.7-4.5-0.8c-2.9-0.1-5.6-0.1-7.9-0.1     c-2.2,0-4.1-0.1-5.3-0.1c-0.6,0-1.3,0-1.9-0.1c0.6-0.1,1.3-0.1,1.9-0.1c1.3,0,3.1-0.1,5.3-0.1c2.2,0,4.9-0.1,7.9,0     c3.3,0.1,6.5,1.1,9.2,2.9c1.4,0.9,2.7,2.1,3.8,3.4c1,1.2,1.8,2.6,2.5,4c0.1,0.3,0.3,0.7,0.4,1l0.2,0.5c0,0.2,0.1,0.3,0.1,0.5     c0.1,0.3,0.2,0.7,0.3,1c0.1,0.3,0.1,0.7,0.2,1c0.2,1.3,0.4,2.5,0.5,3.6c0.3,2.2,0.5,4,0.6,5.3C178.8,259,178.9,259.7,178.9,260.3     z"/>
                <path class="st6" d="M175,322.6h-0.6c0.2-10.7-8.3-19.5-19-19.7c-10.7-0.2-19.5,8.3-19.7,19c0,0.2,0,0.5,0,0.7H135     c-0.2-11,8.6-20.1,19.6-20.3c11-0.2,20.1,8.6,20.3,19.6C175,322.1,175,322.3,175,322.6z"/>
                <path class="st5" d="M138.4,323.6c0,1.7-1.3,3-3,3c-1.7,0-3-1.3-3-3c0-1.7,1.3-3,3-3S138.4,321.9,138.4,323.6L138.4,323.6z"/>
                <path class="st5" d="M177.8,323.2c0,1.7-1.3,3-3,3c-1.7,0-3-1.3-3-3c0-1.7,1.3-3,3-3S177.8,321.5,177.8,323.2L177.8,323.2z"/>
                <path class="st6" d="M174.8,317.6c0,0.1-8.7,0.2-19.4,0.2s-19.4-0.1-19.4-0.2s8.7-0.2,19.4-0.2     C166.1,317.5,174.8,317.6,174.8,317.6z"/>
                <path class="st7" d="M108.5,192.6c1,0.6,1.6,1.6,1.9,2.7c0.2,1.1,0.2,2.2-0.1,3.3c-0.5,2.1-2,4.1-3.5,5.7c-1.6-1.8-1.7-4.6-1.7-6     C105.2,196.1,106.7,192.1,108.5,192.6"/>
                <path class="st7" d="M108.5,208.1c-0.1-1.3,0.5-2.5,1.5-3.2c1.1-0.7,2.4-0.9,3.6-0.7c0.6,0.1,1.1,0.4,1.4,0.9     c0.2,0.5,0.2,1.1-0.2,1.5c-0.3,0.4-0.8,0.8-1.3,1C111.9,208.4,110.1,208.9,108.5,208.1"/>
                <path class="st5" d="M105.8,212.8c0.1-0.5,0.2-0.9,0.4-1.4c0.2-0.5,0.4-1,0.7-1.4c0.3-0.5,0.7-1.1,1.1-1.5c0.8-0.9,1.7-1.6,2.8-2     c0.3-0.1,0.7-0.2,1-0.3c0.1,0,0.3,0,0.4,0c0,0-0.5,0.1-1.3,0.4c-1,0.5-2,1.2-2.7,2c-0.4,0.5-0.8,1-1.1,1.5     c-0.3,0.4-0.5,0.9-0.7,1.3C106.2,212,106,212.4,105.8,212.8z"/>
                <path class="st5" d="M107.6,195.8c0,0.2,0,0.5,0,0.7c0,0.5-0.1,1.1-0.1,2c-0.1,1.7-0.3,4-0.6,6.5c-0.3,2.5-0.6,4.8-0.9,6.5     c-0.1,0.8-0.2,1.5-0.3,1.9c0,0.2-0.1,0.5-0.2,0.7c0-0.2,0-0.5,0.1-0.7c0.1-0.5,0.2-1.2,0.3-1.9c0.2-1.7,0.5-3.9,0.8-6.5     c0.3-2.5,0.5-4.8,0.6-6.5c0.1-0.8,0.1-1.5,0.2-2C107.5,196.3,107.6,196,107.6,195.8z"/>
                <path class="st7" d="M105.7,208.6c-0.5-2.6-2.2-4.9-4.7-6c-0.6-0.3-1.4-0.4-1.9,0c-0.5,0.4-0.4,1.3-0.1,1.9     c1.1,2.6,3.8,4.3,6.6,4.3"/>
                <path class="st5" d="M101.4,204.5c0.1,0,0.2,0.1,0.3,0.2c0.3,0.2,0.6,0.4,0.9,0.6c1,0.6,1.8,1.5,2.4,2.4c0.4,0.5,0.6,1.1,0.8,1.7     c0.1,0.5,0.2,1,0.2,1.5c0,0.3-0.1,0.7-0.1,1c0,0.1,0,0.3-0.1,0.4c0,0,0.1-0.5,0.1-1.4c0-0.5-0.1-1-0.2-1.5     c-0.2-0.6-0.4-1.1-0.8-1.7c-0.7-0.9-1.4-1.7-2.3-2.4C102.2,205.1,101.8,204.8,101.4,204.5z"/>
                <path class="st5" d="M105.4,229L105.4,229c-4.4,0-8-3.6-8-8v-8h16.1v8C113.5,225.4,109.9,229,105.4,229z"/>
                <path class="st1" d="M113.5,216.9c-0.1,0.1-0.1,0.2-0.2,0.2l-0.6,0.6l-2.4,2.1l-0.1,0l-0.1,0l-4.7-2.8h0.1l-4.3,2.8l-0.1,0     l-0.1-0.1l-2.7-2.1l-0.7-0.6c-0.1-0.1-0.2-0.1-0.2-0.2c0,0,0.1,0.1,0.3,0.2l0.8,0.5l2.7,2h-0.1l4.3-2.8l0.1,0l0.1,0l0,0l4.6,2.8     H110l2.5-2l0.7-0.6C113.4,216.9,113.5,216.9,113.5,216.9z"/>
                <path class="st1" d="M113.5,215.3c-0.1,0.1-0.1,0.2-0.2,0.2l-0.6,0.6l-2.4,2.1l-0.1,0l-0.1,0l-4.7-2.8h0.1l-4.3,2.8l-0.1,0     l-0.1-0.1l-2.7-2.1l-0.7-0.6c-0.1-0.1-0.2-0.1-0.2-0.2c0,0,0.1,0.1,0.3,0.2l0.8,0.5l2.7,2h-0.1l4.3-2.8l0.1,0l0.1,0l0,0l4.6,2.8     H110l2.5-2l0.7-0.6C113.4,215.3,113.5,215.3,113.5,215.3z"/>
                <path class="st1" d="M113.5,218.5c0,0-0.1,0.1-0.2,0.2l-0.6,0.6l-2.4,2.1l-0.1,0.1l-0.1,0l-4.7-2.8h0.1l-4.3,2.8l-0.1,0l-0.1,0     c-1.1-0.8-2-1.6-2.7-2.1l-0.7-0.6c-0.2-0.1-0.3-0.2-0.2-0.2c0.1,0,0.2,0.1,0.3,0.2l0.8,0.6l2.7,2h-0.1l4.3-2.8l0.1,0l0.1,0l0,0     l4.6,2.8H110l2.5-2l0.7-0.5C113.3,218.6,113.4,218.6,113.5,218.5z"/>
                <path class="st7" d="M321.6,247.9c-3.3,0.5-4.8,4.6-4.5,8c0.3,3.4,1.7,6.6,1.3,10c-0.5,4.3-3.7,7.9-4.1,12.1     c-0.4,5,3.1,9.5,4.2,14.4c0.5,2.4,0.4,4.9,1.3,7.2c1.8,4.7,7,7,11.7,5.1c3.4-1.3,5.7-4.6,5.8-8.3c0.1-3.9-2.3-7.5-2-11.4     c0.2-2.8,1.9-5.5,1.5-8.4c-0.4-3.4-3.5-5.8-4.7-9c-1.1-3.2,0-6.8-0.4-10.1C331,251.6,327.7,247.4,321.6,247.9"/>
                <path class="st7" d="M304.6,277.2c-0.6,5.6,1.9,12.2,4.8,17.1c2.9,4.9,7.3,8.7,12.6,10.9c0.6,0.2,1.3,0.4,1.8,0.1     c0.4-0.4,0.5-0.9,0.5-1.4C324.3,291.6,316.3,280.7,304.6,277.2"/>
                <g class="st12">
                    <path d="M304.6,277.2c-0.6,5.6,1.9,12.2,4.8,17.1c2.9,4.9,7.3,8.7,12.6,10.9c0.6,0.2,1.3,0.4,1.8,0.1c0.4-0.4,0.5-0.9,0.5-1.4      C324.3,291.6,316.3,280.7,304.6,277.2"/>
                </g>
                <path class="st5" d="M329.1,316.9c-0.1-0.1-0.1-0.2-0.2-0.3c-0.1-0.2-0.2-0.5-0.4-0.9c-0.3-0.8-0.8-1.9-1.5-3.4     c-1.7-3.7-3.5-7.3-5.6-10.8c-2-3.5-4.3-6.9-6.6-10.2c-0.9-1.3-1.7-2.3-2.2-2.9c-0.3-0.3-0.4-0.6-0.6-0.8     c-0.1-0.1-0.1-0.2-0.2-0.3c0,0,0.1,0.1,0.2,0.3l0.6,0.8c0.6,0.6,1.3,1.7,2.3,2.9c4.9,6.5,9,13.5,12.3,21c0.6,1.4,1.1,2.6,1.4,3.4     l0.3,0.9C329,316.7,329,316.8,329.1,316.9z"/>
                <path class="st5" d="M325.4,263.4c0,0.2,0.1,0.4,0.1,0.5c0,0.4,0.1,0.9,0.1,1.5c0.1,1.4,0.2,3.3,0.4,5.7     c0.3,4.8,0.7,11.4,1.2,18.8c0.5,7.3,1,14,1.4,18.8c0.2,2.4,0.3,4.3,0.4,5.7c0,0.6,0.1,1.2,0.1,1.5c0,0.2,0,0.4,0,0.5     c0-0.2-0.1-0.4-0.1-0.5c0-0.4-0.1-0.9-0.2-1.5c-0.1-1.4-0.3-3.3-0.5-5.7c-0.4-4.8-1-11.4-1.5-18.8s-0.9-14-1.1-18.8     c-0.1-2.4-0.2-4.3-0.3-5.7c0-0.6,0-1.2-0.1-1.6C325.4,263.8,325.4,263.6,325.4,263.4z"/>
                <path class="st5" d="M320.3,308.9h14.1v10.3c0,3.7-3,6.7-6.8,6.7l0,0c-3.6,0-6.5-2.8-6.7-6.4L320.3,308.9z"/>
                <polyline class="st7" points="249.1,172.8 282.6,191.4 281.3,193.7 248.1,174.8 249.1,172.8    "/>
                <polygon class="st7" points="247.4,171.1 249,168.7 249.9,169.3 248.5,171.6    "/>
                <polygon class="st7" points="278.8,188.4 280.5,189.4 274.9,225.3 272.2,225.3    "/>
                <path class="st7" d="M264.5,229c0,0,4.1-4.1,9.6-3.9c3.2,0.1,6.1,1.5,8.3,3.8L264.5,229z"/>
                <path class="st7" d="M247.4,187.3l-13.3-7.7l3.9-6.6c2.1-3.7,6.8-4.9,10.5-2.8c0,0,0,0,0,0l0,0c3.7,2.1,4.9,6.8,2.8,10.5     c0,0,0,0,0,0L247.4,187.3z"/>
            </g>
        </g>
        <rect class="st13" width="425" height="355"/>
    </g>
    <script xmlns=""/></svg>