<svg id="wave" style="transform:rotate(0deg); transition: 0.3s" viewBox="0 0 1440 230" version="1.1"
    xmlns="http://www.w3.org/2000/svg">
    <defs>
        <linearGradient id="sw-gradient-0" x1="0" x2="0" y1="1" y2="0">
            <stop stop-color="rgba(243, 62, 62, 1)" offset="0%"></stop>
            <stop stop-color="rgba(255, 11, 11, 1)" offset="100%"></stop>
        </linearGradient>
    </defs>
    <path style="transform:translate(0, 0px); opacity:1" fill="#f3f4f5"
        d="M0,46L48,57.5C96,69,192,92,288,84.3C384,77,480,38,576,46C672,54,768,107,864,130.3C960,153,1056,146,1152,118.8C1248,92,1344,46,1440,53.7C1536,61,1632,123,1728,138C1824,153,1920,123,2016,103.5C2112,84,2208,77,2304,95.8C2400,115,2496,161,2592,161C2688,161,2784,115,2880,111.2C2976,107,3072,146,3168,168.7C3264,192,3360,199,3456,184C3552,169,3648,130,3744,107.3C3840,84,3936,77,4032,69C4128,61,4224,54,4320,57.5C4416,61,4512,77,4608,103.5C4704,130,4800,169,4896,180.2C4992,192,5088,176,5184,161C5280,146,5376,130,5472,122.7C5568,115,5664,115,5760,103.5C5856,92,5952,69,6048,80.5C6144,92,6240,138,6336,141.8C6432,146,6528,107,6624,95.8C6720,84,6816,100,6864,107.3L6912,115L6912,230L6864,230C6816,230,6720,230,6624,230C6528,230,6432,230,6336,230C6240,230,6144,230,6048,230C5952,230,5856,230,5760,230C5664,230,5568,230,5472,230C5376,230,5280,230,5184,230C5088,230,4992,230,4896,230C4800,230,4704,230,4608,230C4512,230,4416,230,4320,230C4224,230,4128,230,4032,230C3936,230,3840,230,3744,230C3648,230,3552,230,3456,230C3360,230,3264,230,3168,230C3072,230,2976,230,2880,230C2784,230,2688,230,2592,230C2496,230,2400,230,2304,230C2208,230,2112,230,2016,230C1920,230,1824,230,1728,230C1632,230,1536,230,1440,230C1344,230,1248,230,1152,230C1056,230,960,230,864,230C768,230,672,230,576,230C480,230,384,230,288,230C192,230,96,230,48,230L0,230Z"></path>
</svg>